<svg width="18" height="12" viewBox="0 0 18 12" fill="none" xmlns="http://www.w3.org/2000/svg">
<g clip-path="url(#clip0_877_416)">
<rect width="18" height="12" fill="white"/>
<path d="M9 3.6C9.65099 3.6 10.2753 3.85286 10.7356 4.30294C11.1959 4.75303 11.4545 5.36348 11.4545 6C11.4545 6.63652 11.1959 7.24697 10.7356 7.69706C10.2753 8.14714 9.65099 8.4 9 8.4C8.34901 8.4 7.72469 8.14714 7.26437 7.69706C6.80406 7.24697 6.54545 6.63652 6.54545 6C6.54545 5.36348 6.80406 4.75303 7.26437 4.30294C7.72469 3.85286 8.34901 3.6 9 3.6ZM9 0C13.0909 0 16.5845 2.488 18 6C16.5845 9.512 13.0909 12 9 12C4.90909 12 1.41545 9.512 0 6C1.41545 2.488 4.90909 0 9 0ZM1.78364 6C2.44494 7.32025 3.4718 8.4326 4.74748 9.2106C6.02317 9.98861 7.49651 10.401 9 10.401C10.5035 10.401 11.9768 9.98861 13.2525 9.2106C14.5282 8.4326 15.5551 7.32025 16.2164 6C15.5551 4.67975 14.5282 3.5674 13.2525 2.7894C11.9768 2.01139 10.5035 1.59894 9 1.59894C7.49651 1.59894 6.02317 2.01139 4.74748 2.7894C3.4718 3.5674 2.44494 4.67975 1.78364 6Z" fill="black"/>
</g>
<defs>
<clipPath id="clip0_877_416">
<rect width="18" height="12" fill="white"/>
</clipPath>
</defs>
</svg>
